<?xml version="1.0" encoding="UTF-8"?>
<svg width="1024" height="1024" version="1.1" viewBox="0 0 271 271" xml:space="preserve" xmlns="http://www.w3.org/2000/svg" xmlns:xlink="http://www.w3.org/1999/xlink"><defs><linearGradient id="a"><stop offset="0"/><stop stop-color="#1a1a1a" offset=".836"/><stop stop-color="#7f7f7f" offset="1"/></linearGradient><radialGradient id="b" cx="206" cy="178" r="22" gradientTransform="matrix(.193 .00952 -.00832 .169 160 139)" gradientUnits="userSpaceOnUse"><stop stop-color="#fff" offset="0"/><stop stop-color="#9c9d9f" offset="1"/></radialGradient><linearGradient id="d" x1="148" x2="139" y1="105" y2="133" gradientTransform="translate(-7.82 -3.31)" gradientUnits="userSpaceOnUse" xlink:href="#a"/><linearGradient id="e" x1="127" x2="139" y1="162" y2="127" gradientTransform="translate(-7.82 -3.31)" gradientUnits="userSpaceOnUse" xlink:href="#a"/><radialGradient id="c" cx="157" cy="143" r="12.7" gradientTransform="matrix(4.89 0 1.86e-8 3.24 -621 -329)" gradientUnits="userSpaceOnUse"><stop stop-color="#7c7c7c" offset="0"/><stop stop-color="#303030" offset=".0587"/><stop offset="1"/></radialGradient></defs><path d="m241 68.8-26.6-26.6m-26.6 26.6 26.6-26.6m-26.6 26.6-26.6-26.6m-26.6 26.6 26.6-26.6m-26.6 26.6-26.6-26.6m-26.6 26.6 26.6-26.6m-26.6 26.6-26.6-26.6m-26.6 26.6 26.6-26.6" fill="none" stroke="#c4c4c4" stroke-linecap="square" stroke-width="18.5"/><path d="m243 202-26.6 26.6m-26.6-26.6 26.6 26.6m-26.6-26.6-26.6 26.6m-26.6-26.6 26.6 26.6m-26.6-26.6-26.6 26.6m-26.6-26.6 26.6 26.6m-26.6-26.6-26.6 26.6m-26.6-26.6 26.6 26.6" fill="none" stroke="#c4c4c4" stroke-linecap="square" stroke-width="18.5"/><path d="m47.5 95.7c-17.1 0.676-31.8 7.78-45 15.1-13.1 7.31-25 14.9-35 18.2-8.24 2.67-25.4 0.376-39.7-3.64-14.3-4.02-25.8-8.97-25.8-8.97l-6.9 12.3s12.4 5.36 27.9 9.73c15.5 4.37 34.2 8.52 49.9 3.45 13.3-4.32 25.5-12.5 37.9-19.5 12.5-6.93 24.9-12.5 37.3-13 28-1.11 64.9 18 64.9 18l8.25-11.7s-37.7-21.5-73.8-20.1z" fill="#0d0d0d" stop-color="#000000"/><g><path d="m54.3 95.7c-2.26-0.0793-4.52-0.0794-6.77 0.01-17.1 0.676-31.8 7.78-45 15.1-13.1 7.31-25 14.9-35 18.2-8.24 2.67-25.4 0.376-39.7-3.64-14.3-4.02-25.8-8.97-25.8-8.97l-3.45 6.17c0.132 0.0572 47.8 20.6 71.6 12.9 23.3-7.55 48.1-31.7 77.6-32.8 32-1.26 69.2 19 69.3 19.1l4.12-5.85s-33.2-18.9-67-20.1z" fill="#252525" stop-color="#000000"/><path d="m175 115v24l-9.04 27.8c-2.7 5.71-8.01 9.06-9.41 6.15l-7.05-14.1v-24.1z" fill="url(#c)"/><path d="m98.8 116v24.1l50.8 17.9v-24.1z" fill="url(#e)"/><path d="m155 137v13.5l27.7 8.83 4.02-1.8v-8.08l-3.17-3.32zm21.6 12.2c1.97 0 3.57 1.6 3.57 3.57-1e-3 0.45-0.0873 0.897-0.254 1.32-0.328 0.099-0.669 0.15-1.01 0.152-1.97 0-3.57-1.6-3.57-3.57 1e-3 -0.451 0.0876-0.897 0.255-1.32 0.328-0.0988 0.669-0.15 1.01-0.151z" fill="#9c9d9f"/><path d="m171 124v13.5l27.7 8.83 4.02-1.8v-8.08l-3.17-3.32zm21.6 12.2c1.97 0 3.57 1.6 3.57 3.57-1e-3 0.45-0.0873 0.897-0.254 1.32-0.328 0.099-0.669 0.15-1.01 0.152-1.97 0-3.57-1.6-3.57-3.57 1e-3 -0.451 0.0876-0.897 0.255-1.32 0.328-0.0988 0.669-0.15 1.01-0.151z" fill="#9c9d9f"/></g><path d="m163 156c-2.91-0.118-5.3 9.19-2.46 10.2l35.5 11.4a5.29 5.29 0 0 0 1e-3 5.2e-4l0.44 0.141a5.29 5.29 0 0 0 1.39 0.187 5.29 5.29 0 0 0 5.29-5.29 5.29 5.29 0 0 0-4.71-5.26l6e-3 -0.0326-35.2-11.3c-0.0948-0.024-0.189-0.0375-0.283-0.0413z" fill="url(#b)" style="paint-order:markers fill stroke"/><path d="m158 173c-4.38-1.24-28.7-7.68-30.2-13.5-1.43-5.64-2.99-10.3-9-12.4l-20.1-7.06 50.8 17.9z"/><path d="m150 134-50.8-17.9 25.5-19.7 50.8 17.9z" fill="url(#d)"/><g fill="none" stroke-linecap="square"><path d="m241 68.8-26.6-26.6m-26.6 26.6 26.6-26.6m-26.6 26.6-26.6-26.6m-26.6 26.6 26.6-26.6m-26.6 26.6-26.6-26.6m-26.6 26.6 26.6-26.6m-26.6 26.6-26.6-26.6m-26.6 26.6 26.6-26.6" stroke="#7e7e7e" stroke-width="12.7"/><path d="m241 68.8-26.6-26.6m-26.6 26.6 26.6-26.6m-26.6 26.6-26.6-26.6m-26.6 26.6 26.6-26.6m-26.6 26.6-26.6-26.6m-26.6 26.6 26.6-26.6m-26.6 26.6-26.6-26.6m-26.6 26.6 26.6-26.6" stroke="#000" stroke-width="8.47"/><path d="m243 202-26.6 26.6m-26.6-26.6 26.6 26.6m-26.6-26.6-26.6 26.6m-26.6-26.6 26.6 26.6m-26.6-26.6-26.6 26.6m-26.6-26.6 26.6 26.6m-26.6-26.6-26.6 26.6m-26.6-26.6 26.6 26.6" stroke="#7e7e7e" stroke-width="12.7"/><path d="m243 202-26.6 26.6m-26.6-26.6 26.6 26.6m-26.6-26.6-26.6 26.6m-26.6-26.6 26.6 26.6m-26.6-26.6-26.6 26.6m-26.6-26.6 26.6 26.6m-26.6-26.6-26.6 26.6m-26.6-26.6 26.6 26.6" stroke="#000" stroke-width="8.47"/></g></svg>
