<?xml version="1.0" encoding="UTF-8" standalone="no"?>
<svg
   sodipodi:docname="icon.svg"
   inkscape:version="1.4.2 (f4327f4, 2025-05-13)"
   id="svg8"
   version="1.1"
   viewBox="0 0 270.93333 270.93334"
   height="1024"
   width="1024"
   xml:space="preserve"
   inkscape:export-filename="icon-512.png"
   inkscape:export-xdpi="48"
   inkscape:export-ydpi="48"
   xmlns:inkscape="http://www.inkscape.org/namespaces/inkscape"
   xmlns:sodipodi="http://sodipodi.sourceforge.net/DTD/sodipodi-0.dtd"
   xmlns:xlink="http://www.w3.org/1999/xlink"
   xmlns="http://www.w3.org/2000/svg"
   xmlns:svg="http://www.w3.org/2000/svg"
   xmlns:rdf="http://www.w3.org/1999/02/22-rdf-syntax-ns#"
   xmlns:cc="http://creativecommons.org/ns#"
   xmlns:dc="http://purl.org/dc/elements/1.1/"><defs
     id="defs2"><linearGradient
       id="linearGradient12"
       inkscape:collect="always"><stop
         style="stop-color:#7c7c7c;stop-opacity:1;"
         offset="0"
         id="stop12" /><stop
         style="stop-color:#303030;stop-opacity:1;"
         offset="0.05870715"
         id="stop14" /><stop
         style="stop-color:#000000;stop-opacity:1;"
         offset="1"
         id="stop13" /></linearGradient><linearGradient
       id="linearGradient7"
       inkscape:collect="always"><stop
         style="stop-color:#000000;stop-opacity:1;"
         offset="0"
         id="stop7" /><stop
         style="stop-color:#1a1a1a;stop-opacity:1;"
         offset="0.83636367"
         id="stop9" /><stop
         style="stop-color:#7f7f7f;stop-opacity:1;"
         offset="1"
         id="stop8" /></linearGradient><linearGradient
       id="linearGradient3"
       inkscape:collect="always"><stop
         style="stop-color:#ffffff;stop-opacity:1;"
         offset="0"
         id="stop3" /><stop
         style="stop-color:#9c9d9f;stop-opacity:1;"
         offset="1"
         id="stop4" /></linearGradient><radialGradient
       inkscape:collect="always"
       xlink:href="#linearGradient3"
       id="radialGradient4"
       cx="205.92534"
       cy="178.01637"
       fx="205.92534"
       fy="178.01637"
       r="21.958047"
       gradientTransform="matrix(0.19343415,0.00952073,-0.00831783,0.16899478,159.75468,138.56532)"
       gradientUnits="userSpaceOnUse" /><linearGradient
       inkscape:collect="always"
       xlink:href="#linearGradient7"
       id="linearGradient8"
       x1="147.5018"
       y1="105.36018"
       x2="138.51584"
       y2="132.72141"
       gradientUnits="userSpaceOnUse"
       gradientTransform="translate(-7.818387,-3.3141743)" /><linearGradient
       inkscape:collect="always"
       xlink:href="#linearGradient7"
       id="linearGradient11"
       x1="126.77684"
       y1="161.61133"
       x2="139.20918"
       y2="127.22186"
       gradientUnits="userSpaceOnUse"
       gradientTransform="translate(-7.818387,-3.3141743)" /><radialGradient
       inkscape:collect="always"
       xlink:href="#linearGradient12"
       id="radialGradient13"
       cx="157.45053"
       cy="143.07855"
       fx="157.45053"
       fy="143.07855"
       r="12.749435"
       gradientTransform="matrix(4.8928579,0,1.8572895e-8,3.2381081,-620.75099,-329.07339)"
       gradientUnits="userSpaceOnUse" /></defs><sodipodi:namedview
     inkscape:window-maximized="0"
     inkscape:window-y="61"
     inkscape:window-x="221"
     inkscape:window-height="1030"
     inkscape:window-width="1274"
     units="px"
     showgrid="false"
     inkscape:document-rotation="0"
     inkscape:current-layer="layer1"
     inkscape:document-units="px"
     inkscape:cy="559.28571"
     inkscape:cx="363.57143"
     inkscape:zoom="0.7"
     inkscape:pageshadow="2"
     inkscape:pageopacity="0.0"
     borderopacity="1.0"
     bordercolor="#666666"
     pagecolor="#ffffff"
     id="base"
     inkscape:showpageshadow="2"
     inkscape:pagecheckerboard="0"
     inkscape:deskcolor="#d1d1d1"
     inkscape:export-bgcolor="#ffffffff" /><metadata
     id="metadata5"><rdf:RDF><cc:Work
         rdf:about=""><dc:format>image/svg+xml</dc:format><dc:type
           rdf:resource="http://purl.org/dc/dcmitype/StillImage" /></cc:Work></rdf:RDF></metadata><g
     id="layer1"
     inkscape:groupmode="layer"
     inkscape:label="Layer 1"><path
       id="path26"
       style="fill:none;stroke:#c4c4c4;stroke-width:18.52083345;stroke-linecap:square;stroke-linejoin:miter;stroke-dasharray:none;stroke-opacity:1"
       d="M 240.79019,68.821487 214.17693,42.208233 M 187.56368,68.821487 214.17693,42.208233 M 187.56368,68.821487 160.95042,42.208233 M 134.33717,68.821487 160.95042,42.208233 M 134.33717,68.821487 107.72391,42.208233 M 81.110652,68.821487 107.72391,42.208233 M 81.110652,68.821487 54.497399,42.208233 M 27.884146,68.821487 54.497399,42.208233" /><path
       id="path27"
       style="fill:none;stroke:#c4c4c4;stroke-width:18.52083345;stroke-linecap:square;stroke-linejoin:miter;stroke-dasharray:none;stroke-opacity:1"
       d="m 243.04919,202.11184 -26.61326,26.61326 m -26.61325,-26.61326 26.61325,26.61326 m -26.61325,-26.61326 -26.61326,26.61326 m -26.61325,-26.61326 26.61325,26.61326 M 136.59617,202.11184 109.98291,228.7251 M 83.369658,202.11184 109.98291,228.7251 M 83.369658,202.11184 56.756405,228.7251 M 30.143152,202.11184 56.756405,228.7251" /><g
       id="g27"><path
         style="baseline-shift:baseline;display:inline;overflow:visible;vector-effect:none;fill:#0d0d0d;stroke:none;stroke-width:1.06634;enable-background:accumulate;stop-color:#000000"
         d="m 47.49352,95.684463 c -17.092792,0.676 -31.845424,7.777177 -44.9878242,15.091807 -13.1423988,7.31463 -25.0273978,14.94825 -34.9784368,18.17187 -8.24452,2.6708 -25.38533,0.37582 -39.682206,-3.64062 -14.296877,-4.01645 -25.777444,-8.97071 -25.777444,-8.97071 l -6.902409,12.34766 c 0,0 12.380192,5.36335 27.918343,9.72851 15.538153,4.36517 34.205259,8.51584 49.851493,3.44727 13.339949,-4.32146 25.4834448,-12.52796 37.936614,-19.45898 12.45317,-6.93103 24.864697,-12.47983 37.325881,-12.97266 28.030377,-1.10857 64.860009,18.04492 64.860009,18.04492 l 8.24604,-11.6914 c 0,0 -37.733224,-21.524477 -73.81006,-20.097667 z"
         id="path17" /><path
         id="path17-1"
         style="baseline-shift:baseline;display:inline;overflow:visible;vector-effect:none;fill:#252525;fill-opacity:1;stroke:none;stroke-width:1.06634;enable-background:accumulate;stop-color:#000000"
         d="m 54.268289,95.674713 c -2.25812,-0.0793 -4.519641,-0.0794 -6.774442,0.01 -17.092789,0.676 -31.845486,7.776957 -44.9878882,15.091587 -13.1424028,7.31463 -25.0276618,14.9484 -34.9786998,18.17202 -8.24452,2.6708 -25.384978,0.37583 -39.681855,-3.64061 -14.296876,-4.01645 -25.777457,-8.97102 -25.777457,-8.97102 l -3.451567,6.1743 c 0.13233,0.0572 47.758053,20.62188 71.615604,12.89327 23.2909878,-7.54508 48.059262,-31.6793 77.613243,-32.84813 31.977773,-1.26469 69.159963,18.97593 69.335713,19.07171 l 4.12319,-5.84564 c 0,0 -33.163953,-18.918217 -67.035841,-20.107307 z" /><path
         style="fill:url(#radialGradient13);fill-opacity:1;stroke:none;stroke-width:0.264583px;stroke-linecap:butt;stroke-linejoin:miter;stroke-opacity:1"
         d="m 175.13101,114.50631 v 23.95527 l -9.04458,27.77908 c -2.70331,5.71055 -8.01307,9.05875 -9.40921,6.14672 l -7.04508,-14.09017 v -24.06676 z"
         id="path4"
         sodipodi:nodetypes="ccccccc" /><path
         id="path4-5"
         style="fill:url(#linearGradient11);fill-opacity:1;stroke:none;stroke-width:0.264583px;stroke-linecap:butt;stroke-linejoin:miter;stroke-opacity:1"
         d="m 98.846423,116.37878 v 24.06675 l 50.785527,17.85163 v -24.06675 z"
         sodipodi:nodetypes="ccccc" /><path
         id="path1"
         style="fill:#9c9d9f;fill-opacity:1;stroke:none;stroke-width:0.264583px;stroke-linecap:butt;stroke-linejoin:miter;stroke-opacity:1"
         d="m 154.78615,136.5946 v 13.52269 l 27.70193,8.8348 4.0243,-1.80432 v -8.0849 l -3.17435,-3.31961 z m 21.57439,12.1729 c 1.97269,0 3.57187,1.59919 3.57187,3.57188 -0.001,0.4505 -0.0873,0.89673 -0.25424,1.31516 -0.3284,0.099 -0.66935,0.15016 -1.01234,0.15193 -1.97269,0 -3.57188,-1.59918 -3.57188,-3.57187 0.001,-0.45071 0.0876,-0.89712 0.25477,-1.31568 0.32826,-0.0988 0.66903,-0.14976 1.01182,-0.15142 z"
         sodipodi:nodetypes="cccccccccccccc" /><path
         id="path1-8"
         style="fill:#9c9d9f;fill-opacity:1;stroke:none;stroke-width:0.264583px;stroke-linecap:butt;stroke-linejoin:miter;stroke-opacity:1"
         d="m 170.64927,124.1217 v 13.52269 l 27.70193,8.8348 4.0243,-1.80432 v -8.0849 l -3.17435,-3.31961 z m 21.57439,12.1729 c 1.97269,0 3.57187,1.59919 3.57187,3.57188 -0.001,0.4505 -0.0873,0.89673 -0.25424,1.31516 -0.3284,0.099 -0.66935,0.15016 -1.01234,0.15193 -1.97269,0 -3.57188,-1.59918 -3.57188,-3.57187 0.001,-0.45071 0.0876,-0.89712 0.25477,-1.31568 0.32826,-0.0988 0.66903,-0.14976 1.01182,-0.15142 z"
         sodipodi:nodetypes="cccccccccccccc" /><path
         id="path2"
         style="fill:url(#radialGradient4);stroke:none;stroke-width:1.57326;stroke-linecap:square;stroke-dashoffset:9.14667;paint-order:markers fill stroke"
         d="m 162.87197,155.60791 c -2.91099,-0.11765 -5.29505,9.19205 -2.45928,10.16011 l 35.51617,11.38948 a 5.2916665,5.2916665 0 0 0 0.001,5.2e-4 l 0.44028,0.14108 a 5.2916665,5.2916665 0 0 0 1.39423,0.18706 5.2916665,5.2916665 0 0 0 5.29167,-5.29166 5.2916665,5.2916665 0 0 0 -4.70566,-5.25911 l 0.006,-0.0326 -35.20147,-11.25358 c -0.0948,-0.024 -0.18928,-0.0375 -0.28318,-0.0413 z" /><path
         style="fill:#000000;fill-opacity:1;stroke:none;stroke-width:0.264583px;stroke-linecap:butt;stroke-linejoin:miter;stroke-opacity:1"
         d="m 158.08387,173.4586 c -4.38031,-1.24328 -28.68086,-7.68478 -30.15616,-13.50754 -1.42859,-5.63841 -2.99157,-10.33481 -9.0038,-12.44818 l -20.077417,-7.05747 50.785647,17.8518 z"
         id="path6"
         sodipodi:nodetypes="cssccc" /><path
         style="fill:url(#linearGradient8);stroke:none;stroke-width:0.264583px;stroke-linecap:butt;stroke-linejoin:miter;stroke-opacity:1"
         d="M 149.63195,134.23041 98.846423,116.37878 124.34512,96.654406 175.13101,114.50631 Z"
         id="path7" /></g><path
       id="path24"
       style="fill:none;stroke:#7e7e7e;stroke-width:12.70000008;stroke-linecap:square;stroke-linejoin:miter;stroke-dasharray:none;stroke-opacity:1"
       d="M 240.79019,68.821487 214.17693,42.208233 M 187.56368,68.821487 214.17693,42.208233 M 187.56368,68.821487 160.95042,42.208233 M 134.33717,68.821487 160.95042,42.208233 M 134.33717,68.821487 107.72391,42.208233 M 81.110652,68.821487 107.72391,42.208233 M 81.110652,68.821487 54.497399,42.208233 M 27.884146,68.821487 54.497399,42.208233" /><path
       id="path22"
       style="fill:none;stroke:#000000;stroke-width:8.46667;stroke-linecap:square;stroke-linejoin:miter;stroke-dasharray:none;stroke-opacity:1"
       d="M 240.79019,68.821487 214.17693,42.208233 M 187.56368,68.821487 214.17693,42.208233 M 187.56368,68.821487 160.95042,42.208233 M 134.33717,68.821487 160.95042,42.208233 M 134.33717,68.821487 107.72391,42.208233 M 81.110652,68.821487 107.72391,42.208233 M 81.110652,68.821487 54.497399,42.208233 M 27.884146,68.821487 54.497399,42.208233" /><path
       id="path25"
       style="fill:none;stroke:#7e7e7e;stroke-width:12.70000008;stroke-linecap:square;stroke-linejoin:miter;stroke-dasharray:none;stroke-opacity:1"
       d="m 243.04919,202.11184 -26.61326,26.61326 m -26.61325,-26.61326 26.61325,26.61326 m -26.61325,-26.61326 -26.61326,26.61326 m -26.61325,-26.61326 26.61325,26.61326 M 136.59617,202.11184 109.98291,228.7251 M 83.369658,202.11184 109.98291,228.7251 M 83.369658,202.11184 56.756405,228.7251 M 30.143152,202.11184 56.756405,228.7251" /><path
       id="path23"
       style="fill:none;stroke:#000000;stroke-width:8.46667;stroke-linecap:square;stroke-linejoin:miter;stroke-dasharray:none;stroke-opacity:1"
       d="m 243.04919,202.11184 -26.61326,26.61326 m -26.61325,-26.61326 26.61325,26.61326 m -26.61325,-26.61326 -26.61326,26.61326 m -26.61325,-26.61326 26.61325,26.61326 M 136.59617,202.11184 109.98291,228.7251 M 83.369658,202.11184 109.98291,228.7251 M 83.369658,202.11184 56.756405,228.7251 M 30.143152,202.11184 56.756405,228.7251" /></g></svg>
